<svg xmlns="http://www.w3.org/2000/svg" fill="none" viewBox="0 0 64 64" id="Openai-Icon--Streamline-Svg-Logos" height="64" width="64">
  <desc>
    Openai Icon Streamline Icon: https://streamlinehq.com
  </desc>
  <path fill="#000000" d="M58.8468 26.3108c1.4174666666666664 -4.2687333333333335 0.9268000000000001 -8.941266666666666 -1.3465333333333334 -12.822399999999998C54.08213333333333 7.538466666666666 47.211999999999996 4.47784 40.50253333333333 5.9159733333333335c-3.7810666666666664 -4.205826666666667 -9.518066666666666 -6.0760760000000005 -15.051400000000001 -4.906733333333333C19.91773333333333 2.1785866666666664 15.427933333333332 6.21002 13.671733333333332 11.586c-4.407266666666667 0.9037999999999999 -8.21116 3.663333333333333 -10.438286666666666 7.572399999999999C-0.22195933333333331 25.098733333333332 0.5623273333333333 32.59186666666666 5.172866666666666 37.68793333333333c-1.4228466666666666 4.2668 -0.93662 8.939933333333332 1.3341266666666665 12.822466666666665C9.929466666666666 56.46233333333333 16.804066666666664 59.52273333333333 23.517133333333334 58.0828c2.9859333333333336 3.362333333333333 7.275666666666667 5.275399999999999 11.7724 5.250266666666667 6.8772666666666655 0.006133333333333333 12.969933333333332 -4.433533333333333 15.070733333333333 -10.982066666666665 4.406599999999999 -0.9053333333333333 8.209933333333332 -3.6643999999999997 10.438266666666667 -7.572399999999999 3.4136666666666664 -5.9298 2.6260666666666665 -13.382533333333331 -1.9517333333333333 -18.467799999999997ZM35.28953333333333 59.23166666666666c-2.7449999999999997 0.004333333333333333 -5.404 -0.9578 -7.5106 -2.7176666666666667l0.37053333333333327 -0.21 12.4766 -7.201866666666666c0.6316666666666666 -0.3704666666666666 1.0213333333333332 -1.0465333333333333 1.0252666666666665 -1.7788V29.732599999999998l5.274733333333333 3.0512c0.0528 0.02693333333333333 0.08953333333333333 0.0774 0.09886666666666666 0.13586666666666666v14.5766c-0.013600000000000001 6.4756 -5.259733333333333 11.721799999999998 -11.7354 11.7354ZM10.064666666666666 48.4598c-1.3766 -2.3770666666666664 -1.8708666666666665 -5.163399999999999 -1.3958666666666666 -7.8688666666666665l0.37053333333333327 0.22233333333333333 12.488933333333332 7.2017999999999995c0.6292666666666666 0.36926666666666663 1.409 0.36926666666666663 2.0382666666666664 0l15.256 -8.795333333333332v6.090066666666666c-0.0028666666666666667 0.06386666666666665 -0.03473333333333333 0.123 -0.08646666666666666 0.1605333333333333L26.098866666666666 52.75866666666667c-5.615533333333333 3.2350666666666665 -12.790133333333332 1.3115333333333332 -16.0342 -4.298866666666666Zm-3.285933333333333 -27.176666666666666c1.3861999999999999 -2.3924 3.574133333333333 -4.217133333333333 6.1765333333333325 -5.151199999999999v14.823599999999999c-0.009533333333333333 0.7294666666666667 0.37859999999999994 1.4063333333333334 1.0129333333333332 1.7665333333333333l15.181866666666666 8.758266666666666 -5.274733333333333 3.0512c-0.05793333333333334 0.030733333333333335 -0.12733333333333333 0.030733333333333335 -0.18526666666666664 0L11.077599999999999 37.2556c-5.604526666666667 -3.248533333333333 -7.526619999999999 -10.417733333333333 -4.298866666666666 -16.0342v0.061733333333333335Zm43.334466666666664 10.067733333333333 -15.231333333333334 -8.8448 5.2623999999999995 -3.0388c0.05793333333333334 -0.030799999999999998 0.12739999999999999 -0.030799999999999998 0.18533333333333335 0L52.94199999999999 26.755533333333332c3.9364666666666666 2.271533333333333 6.2074 6.611666666666666 5.829333333333333 11.140733333333332 -0.37806666666666666 4.529066666666666 -3.3371999999999997 8.432599999999999 -7.5958000000000006 10.02V33.092666666666666c-0.02213333333333333 -0.7273333333333333 -0.4258 -1.3892 -1.0623333333333331 -1.7417999999999998Zm5.25 -7.8936 -0.37059999999999993 -0.22233333333333333L42.5284 15.971333333333334c-0.6330666666666667 -0.37146666666666667 -1.4175333333333333 -0.37146666666666667 -2.0505999999999998 0L25.2342 24.766666666666666v-6.09c-0.0066 -0.06306666666666666 0.0218 -0.12473333333333332 0.07413333333333333 -0.1606l12.612400000000001 -7.275933333333333c3.946066666666667 -2.2732666666666663 8.850533333333333 -2.0611333333333333 12.585533333333332 0.5444 3.7350666666666665 2.6055333333333333 5.627733333333333 7.135 4.856933333333333 11.623333333333331v0.0494ZM22.355933333333333 34.2538l-5.274733333333333 -3.0388c-0.05333333333333333 -0.03233333333333333 -0.08953333333333333 -0.08659999999999998 -0.09886666666666666 -0.14826666666666666V16.5272c0.006066666666666666 -4.553133333333333 2.6424666666666665 -8.692799999999998 6.765999999999999 -10.623586666666666 4.123466666666666 -1.93082 8.991333333333333 -1.3050533333333334 12.4924 1.6059199999999998l-0.37059999999999993 0.21L23.3936 14.921333333333333c-0.6316666666666666 0.37053333333333327 -1.0213333333333332 1.0465333333333333 -1.0253333333333332 1.7788666666666666l-0.012333333333333332 17.5536Zm2.8658666666666663 -6.176466666666666 6.7942 -3.9159333333333333 6.806533333333332 3.9159333333333333v7.831799999999999l-6.7818000000000005 3.9158666666666666 -6.806533333333332 -3.9158666666666666 -0.012399999999999998 -7.831799999999999Z" stroke-width="0.6667"></path>
</svg>