<svg xmlns="http://www.w3.org/2000/svg" fill="none" viewBox="0 0 96 96" id="Gradio-Icon--Streamline-Svg-Logos" height="64" width="64">
  <desc>
    Gradio Icon Streamline Icon: https://streamlinehq.com
  </desc>
  <path fill="url(#a)" d="M45.0151 30.7883c1.8489-1.0597 4.1209-1.0597 5.9698 0l40.9978 23.5c4.0231 2.306 4.0231 8.1087 0 10.4147l-40.9978 23.5c-1.8489 1.0598-4.1209 1.0598-5.9698 0l-40.9978-23.5c-4.0230673-2.306-4.0230673-8.1087 0-10.4147l40.9978-23.5Zm2.984 12.1227L19.0706 59.4945 47.9991 76.075l28.9284-16.5805L47.9991 42.911Z"></path>
  <path fill="url(#b)" d="M45.0151 7.79697c1.8489-1.05974 4.1209-1.05974 5.9698 0L91.9827 31.297c4.0231 2.306 4.0231 8.1087 0 10.4147l-40.9978 23.5c-1.8489 1.0597-4.1209 1.0597-5.9698 0l-40.9978-23.5c-4.0230673-2.306-4.0230673-8.1087 0-10.4147L45.0151 7.79697Zm2.984 12.12273L19.0706 36.5032l28.9285 16.5805 28.9284-16.5805-28.9284-16.5835Z"></path>
  <path fill="url(#c)" d="m45.1323 30.7796 5.9391 10.4322L9.97184 64.61 4.03271 54.1778 45.1323 30.7796Z"></path>
  <defs>
    <linearGradient id="a" x1="-605.452" x2="8013.16" y1="2967.44" y2="2967.44" gradientUnits="userSpaceOnUse">
      <stop stop-color="#f9d100"></stop>
      <stop offset="1" stop-color="#f97700"></stop>
    </linearGradient>
    <linearGradient id="b" x1="9972.46" x2="1342.19" y1="2944.45" y2="2944.45" gradientUnits="userSpaceOnUse">
      <stop stop-color="#f9d100"></stop>
      <stop offset="1" stop-color="#f97700"></stop>
    </linearGradient>
    <linearGradient id="c" x1="-601.416" x2="7990.76" y1="2597.25" y2="2532.86" gradientUnits="userSpaceOnUse">
      <stop stop-color="#f9d100"></stop>
      <stop offset="1" stop-color="#f97700"></stop>
    </linearGradient>
  </defs>
</svg>